# xmcd
#
# Track frame offsets: 
#        150
#        13098
#        29201
#        40712
#        58194
#        76047
#        90664
#        108741
#        123141
#        139454
#        152088
#        163918
#        181673
#        194865
#        203739
#        218632
#        224551
#        237503
#        254300
#        270790
#        284193
#        300858
#        318126
#        332816
#
# Disc length: 4640 seconds
#
# Revision: 2
# Processed by: cddbd v1.4PL0 Copyright (c) Steve Scherf et al.
# Submitted via: ExactAudioCopy v0.90b3
#
DISCID=63121e18
DTITLE=Rnb summer time - Dj Kost
DYEAR=2002
DGENRE=R&B
TTITLE0=Intro
TTITLE1=Dance for me
TTITLE2=I don't want you
TTITLE3=What's luv
TTITLE4=Get with me
TTITLE5=Tell me what it's gonna be
TTITLE6=Take it to head
TTITLE7=Dance B
TTITLE8=Hotel Motel
TTITLE9=My Girl
TTITLE10=Envious
TTITLE11=Always on time
TTITLE12=Giving you all my lovin'
TTITLE13=You're The One
TTITLE14=Be happy
TTITLE15=Double Face Anthem
TTITLE16=Qui est l'exemple ?
TTITLE17=I got it 2
TTITLE18=Promises
TTITLE19=It's your man
TTITLE20=Everyday's on party
TTITLE21=Happy
TTITLE22=Emotion
TTITLE23=Hit em up style
EXTD=
EXTT0=
EXTT1=
EXTT2=
EXTT3=
EXTT4=
EXTT5=
EXTT6=
EXTT7=
EXTT8=
EXTT9=
EXTT10=
EXTT11=
EXTT12=
EXTT13=
EXTT14=
EXTT15=
EXTT16=
EXTT17=
EXTT18=
EXTT19=
EXTT20=
EXTT21=
EXTT22=
EXTT23=
PLAYORDER=
